<svg xmlns="http://www.w3.org/2000/svg" width="35.331" height="37.671" viewBox="0 0 35.331 37.671"><defs><style>.a{fill:#fff;}</style></defs><g transform="translate(0 37.671) rotate(-90)"><path class="a" d="M21.729,124.4a.862.862,0,0,0-1.351,0,1.248,1.248,0,0,0,0,1.576l6.39,7.452H.954a1.125,1.125,0,0,0,0,2.224H26.768l-6.39,7.452a1.248,1.248,0,0,0,0,1.576.892.892,0,0,0,.676.324.9.9,0,0,0,.676-.324l8.019-9.352a1.248,1.248,0,0,0,0-1.576Z" transform="translate(0 -116.876)"/><path class="a" d="M450.954,35.407a.95.95,0,1,0-.676-.278A.943.943,0,0,0,450.954,35.407Z" transform="translate(-414.236 -33.5)"/><path class="a" d="M450.954,225a.954.954,0,1,0,.954.954A.957.957,0,0,0,450.954,225Z" transform="translate(-414.236 -208.288)"/><path class="a" d="M450.954,129.3a.954.954,0,1,0,.954.954A.957.957,0,0,0,450.954,129.3Z" transform="translate(-414.236 -120.94)"/><path class="a" d="M450.954,177.1a.954.954,0,1,0,.954.954A.957.957,0,0,0,450.954,177.1Z" transform="translate(-414.236 -164.569)"/><path class="a" d="M450.954,81.4a.954.954,0,1,0,.954.954A.957.957,0,0,0,450.954,81.4Z" transform="translate(-414.236 -77.593)"/><path class="a" d="M450.954,272.9a.954.954,0,1,0,.954.954A.957.957,0,0,0,450.954,272.9Z" transform="translate(-414.236 -252.008)"/><path class="a" d="M450.954,320.7a.954.954,0,1,0,.954.954A.957.957,0,0,0,450.954,320.7Z" transform="translate(-414.236 -295.637)"/><path class="a" d="M450.954,368.6a.954.954,0,1,0,.954.954A.957.957,0,0,0,450.954,368.6Z" transform="translate(-414.236 -338.984)"/><path class="a" d="M450.954,416.5a.95.95,0,1,0,.676.278A.93.93,0,0,0,450.954,416.5Z" transform="translate(-414.236 -383.077)"/></g></svg>