<svg xmlns="http://www.w3.org/2000/svg" width="37.672" height="35.33" viewBox="0 0 37.672 35.33"><defs><style>.a{fill:#fff;}</style></defs><g transform="translate(37.672 35.33) rotate(180)"><path class="a" d="M21.729.327a.862.862,0,0,0-1.351,0,1.248,1.248,0,0,0,0,1.576l6.39,7.452H.954A1.045,1.045,0,0,0,0,10.467a1.045,1.045,0,0,0,.954,1.112H26.768l-6.39,7.452a1.248,1.248,0,0,0,0,1.576.892.892,0,0,0,.676.324.9.9,0,0,0,.676-.324l8.019-9.352a1.248,1.248,0,0,0,0-1.576Z" transform="translate(0 7.199)"/><path class="a" d="M.954,1.907A.95.95,0,0,0,1.907.954.95.95,0,0,0,.954,0,.95.95,0,0,0,0,.954a.963.963,0,0,0,.278.676A.943.943,0,0,0,.954,1.907Z" transform="translate(35.764)"/><path class="a" d="M.954,0a.954.954,0,1,0,.954.954A.957.957,0,0,0,.954,0Z" transform="translate(35.764 16.712)"/><path class="a" d="M.954,0a.954.954,0,1,0,.954.954A.957.957,0,0,0,.954,0Z" transform="translate(35.764 8.36)"/><path class="a" d="M.954,0a.954.954,0,1,0,.954.954A.957.957,0,0,0,.954,0Z" transform="translate(35.764 12.531)"/><path class="a" d="M.954,0a.954.954,0,1,0,.954.954A.957.957,0,0,0,.954,0Z" transform="translate(35.764 3.807)"/><path class="a" d="M.954,0a.954.954,0,1,0,.954.954A.957.957,0,0,0,.954,0Z" transform="translate(35.764 20.892)"/><path class="a" d="M.954,0a.954.954,0,1,0,.954.954A.957.957,0,0,0,.954,0Z" transform="translate(35.764 25.063)"/><path class="a" d="M.954,0a.954.954,0,1,0,.954.954A.957.957,0,0,0,.954,0Z" transform="translate(35.764 29.616)"/><path class="a" d="M.954,0A.95.95,0,0,0,0,.954a.95.95,0,0,0,.954.954A.95.95,0,0,0,1.907.954.963.963,0,0,0,1.629.278.93.93,0,0,0,.954,0Z" transform="translate(35.764 33.423)"/></g></svg>